<svg width="178" height="101" viewBox="0 0 178 101" fill="none" xmlns="http://www.w3.org/2000/svg">
<g clip-path="url(#clip0_176_3148)">
<path fill-rule="evenodd" clip-rule="evenodd" d="M140.304 17.6949C139.823 17.1249 139.577 16.4112 139.617 15.6727C139.542 13.8734 139.542 12.0692 139.617 10.3097C139.582 9.57608 139.823 8.83755 140.324 8.28738C140.77 7.88094 141.366 7.66285 141.958 7.66285C142.549 7.66285 143.146 7.88094 143.592 8.28738C144.073 8.83755 144.333 9.57113 144.298 10.3097V15.6727C144.333 16.4062 144.093 17.1448 143.612 17.6949C143.146 18.1014 142.569 18.3195 141.958 18.3195C141.346 18.3195 140.77 18.1014 140.304 17.6949ZM152.493 10.2502C152.458 8.9466 152.157 7.67772 151.621 6.50301C151.1 5.43735 150.378 4.50056 149.466 3.74716C148.498 2.97393 147.386 2.38906 146.193 2.05697C143.441 1.28374 140.524 1.28374 137.753 2.05697C136.565 2.40393 135.467 2.97393 134.5 3.74716C133.588 4.50056 132.846 5.43735 132.345 6.50301C131.803 7.67772 131.508 8.9466 131.473 10.2502V15.8561C131.508 17.1596 131.808 18.4483 132.345 19.623C132.846 20.6689 133.588 21.5908 134.5 22.3046C135.467 23.058 136.58 23.6081 137.753 23.9204C140.524 24.6391 143.421 24.6391 146.193 23.9204C147.381 23.6081 148.498 23.058 149.466 22.3046C150.378 21.5858 151.12 20.6689 151.621 19.623C152.177 18.4483 152.478 17.1596 152.493 15.8561V10.2502Z" fill="white"/>
<path d="M101.853 2.1511C100.494 1.69014 99.3066 1.47205 97.6527 1.50675C96.089 1.56127 95.0114 1.79919 93.7484 2.24032C92.6508 2.55258 91.6283 3.06807 90.7211 3.72729C89.8841 4.33199 89.1975 5.12504 88.7314 6.04201C88.3054 6.9441 88.0648 7.91559 88.0448 8.92673C88.0247 9.91805 88.2102 10.9094 88.6211 11.8313C89.0121 12.6194 89.5483 13.3183 90.24 13.8536C91.0219 14.4583 91.8739 14.939 92.8212 15.2513C93.9188 15.6181 94.8861 15.856 96.0188 16.0592C97.6527 16.3715 98.3443 16.4458 99.4019 16.6639C99.6274 16.6986 99.8129 16.7928 99.9782 16.9564C100.129 17.1199 100.239 17.1745 100.259 17.5264C100.279 17.8188 100.164 17.8733 100.053 18.022C99.9432 18.1707 99.6424 18.3541 99.457 18.4086C98.4546 18.7556 97.5073 18.6862 96.4999 18.3343C96.1491 18.1856 95.8334 17.9675 95.5878 17.6899C95.4023 17.5066 95.2169 17.3232 94.9913 17.1745C94.7508 17.0654 94.4901 17.0109 94.2295 17.0258H88.2452C88.0598 17.0258 87.8944 17.1001 87.7641 17.229C87.709 17.2835 87.6538 17.3777 87.6137 17.4471C87.5786 17.5412 87.5586 17.6106 87.5586 17.7048C87.5786 18.6069 87.8192 19.4892 88.2452 20.2773C88.7264 21.1397 89.418 21.8931 90.235 22.4433C91.2223 23.1223 92.2999 23.6378 93.4527 23.9303C94.9412 24.3367 96.4649 24.5201 98.0085 24.5003C99.4019 24.5003 100.815 24.3367 102.173 23.9699C103.361 23.6577 104.479 23.162 105.481 22.4829C106.374 21.8782 107.135 21.0703 107.677 20.1137C108.218 19.1571 108.494 18.0567 108.474 16.9514C108.474 16.0146 108.323 15.0977 107.992 14.2154C107.657 13.4273 107.135 12.7284 106.469 12.1931C105.672 11.5686 104.74 11.0928 103.772 10.7954C102.469 10.3889 101.131 10.1163 99.7778 9.96761C99.051 9.89326 98.4747 9.80404 98.0136 9.70987C97.6427 9.63552 97.2868 9.52648 96.936 9.37778C96.7305 9.30343 96.5451 9.17456 96.3947 9.01099C96.2995 8.88212 96.2443 8.73343 96.2443 8.58968C96.2443 8.46081 96.2794 8.31212 96.3396 8.20307C96.3947 8.0742 96.4899 7.96516 96.5801 7.89081C96.8959 7.61324 97.3219 7.4695 97.7329 7.48437C98.1038 7.48437 98.4596 7.53889 98.7904 7.68759C99.0109 7.79663 99.2164 7.94533 99.4019 8.1089C99.5673 8.31212 99.7527 8.49551 99.9582 8.65908C100.179 8.75325 100.424 8.78795 100.665 8.78795H106.985C106.985 8.78795 107.15 8.78795 107.246 8.73343C107.321 8.69873 107.396 8.63925 107.451 8.58473C107.506 8.53021 107.561 8.43603 107.601 8.36664C107.637 8.27246 107.657 8.20307 107.657 8.1089C107.621 7.3208 107.376 6.56741 106.95 5.90322C106.429 5.05565 105.742 4.34191 104.96 3.75207C104.033 3.0532 102.97 2.50302 101.858 2.13623L101.853 2.1511Z" fill="white"/>
<path d="M170.932 55.6723C169.464 55.1964 167.92 54.9536 166.376 54.9932C164.943 54.9932 163.535 55.2311 162.176 55.6524C160.988 55.9994 159.851 56.5545 158.868 57.2881C157.976 57.9473 157.25 58.8147 156.733 59.8259C156.267 60.7973 156.007 61.863 155.972 62.9485C155.951 64.034 156.157 65.1145 156.583 66.1108C156.994 66.9931 157.605 67.7465 158.367 68.3512C159.204 69.0104 160.151 69.5259 161.154 69.8778C162.342 70.2842 163.59 70.5568 164.833 70.7254C166.005 70.8542 167.173 71.0723 168.306 71.3846C168.547 71.4193 168.772 71.5333 168.937 71.6968C169.103 71.8604 169.218 72.0835 169.253 72.3412C169.233 72.5444 169.143 72.7278 169.033 72.8914C168.902 73.0549 168.752 73.1689 168.567 73.2383C167.469 73.6249 166.261 73.6249 165.163 73.2383C164.773 73.0896 164.422 72.8517 164.141 72.5593C163.936 72.3561 163.73 72.1727 163.489 72.0091C163.229 71.8802 162.948 71.8257 162.673 71.8455H156.167C156.072 71.8455 155.961 71.8455 155.871 71.9001C155.776 71.9348 155.686 71.9942 155.631 72.0636C155.556 72.138 155.5 72.2123 155.465 72.3214C155.43 72.4155 155.41 72.5246 155.41 72.6138C155.43 73.5853 155.691 74.5419 156.152 75.4044C156.633 76.3411 157.325 77.1491 158.157 77.7736C159.214 78.527 160.407 79.0772 161.65 79.4093C163.269 79.8306 164.938 80.0536 166.612 80.014C168.136 80.014 169.659 79.8306 171.128 79.444C172.411 79.1119 173.619 78.5419 174.716 77.8083C175.704 77.1491 176.521 76.2668 177.112 75.2358C177.708 74.19 178.004 73.0103 177.984 71.8208C178.004 70.8096 177.834 69.7985 177.463 68.8419C177.112 67.9794 176.551 67.226 175.829 66.656C174.957 65.977 173.949 65.4615 172.892 65.1294C171.458 64.6883 169.99 64.376 168.526 64.2124C167.689 64.1182 167.023 64.0092 166.517 63.9002C166.126 63.8258 165.735 63.7168 165.364 63.5532C165.143 63.459 164.938 63.3351 164.788 63.1468C164.692 63.0179 164.637 62.8692 164.622 62.7056C164.622 62.5569 164.677 62.4132 164.732 62.2843C164.788 62.1554 164.883 62.0266 164.993 61.9374C165.344 61.6449 165.81 61.4962 166.276 61.5161C166.667 61.5161 167.073 61.5706 167.429 61.7341C167.669 61.8432 167.895 61.9919 168.08 62.1753C168.266 62.3934 168.451 62.5817 168.677 62.7651C168.917 62.8741 169.198 62.9138 169.459 62.9138H176.335C176.43 62.9138 176.521 62.894 176.616 62.8593C176.711 62.8246 176.781 62.7651 176.841 62.6957C176.917 62.6214 176.972 62.547 177.007 62.438C177.042 62.3438 177.062 62.2348 177.062 62.1455C177.007 61.298 176.746 60.4752 176.3 59.7565C175.779 58.8544 175.112 58.0663 174.31 57.4219C173.288 56.6487 172.155 56.044 170.947 55.6376L170.927 55.6723H170.932Z" fill="white"/>
<path d="M128.948 1.90818C129.173 1.90818 129.394 2.00236 129.559 2.16592C129.725 2.32949 129.82 2.55253 129.82 2.77062V23.4048C129.82 23.6427 129.725 23.8658 129.559 24.0095C129.394 24.1731 129.188 24.2673 128.948 24.2673H123.966C123.63 24.302 123.294 24.1929 123.054 23.9897C122.903 23.8608 122.793 23.7121 122.683 23.5486L117.35 15.4644V23.5486C117.35 23.7865 117.255 24.0095 117.09 24.1533C116.924 24.3168 116.719 24.411 116.478 24.411H110.774C110.549 24.411 110.328 24.3168 110.163 24.1533C109.998 23.9897 109.902 23.7666 109.902 23.5486V2.91932C109.902 2.6814 109.998 2.45836 110.163 2.31462C110.328 2.15105 110.534 2.05688 110.774 2.05688H115.756C116.092 2.02218 116.428 2.13123 116.668 2.33445C116.819 2.46332 116.949 2.61201 117.039 2.77558L122.372 11.6131V2.88462C122.352 2.75575 122.372 2.62688 122.407 2.49801C122.442 2.36914 122.517 2.2601 122.613 2.16592C122.708 2.07175 122.818 2.00236 122.928 1.94783C123.059 1.91314 123.189 1.89331 123.319 1.89331H128.953V1.91314L128.948 1.90818Z" fill="white"/>
<path d="M103.465 36.5249L110.232 27.3007C110.382 27.0826 110.547 26.8794 110.733 26.696C110.883 26.5473 111.069 26.4383 111.254 26.3639C111.439 26.2896 111.665 26.2549 111.865 26.2697H117.85C118.11 26.2697 118.371 26.3788 118.556 26.582C118.742 26.7654 118.852 27.043 118.852 27.3007V52.1232C118.852 52.4008 118.742 52.6585 118.556 52.8419C118.371 53.0253 118.11 53.1343 117.85 53.1542H110.973C110.713 53.1542 110.452 53.0451 110.267 52.8419C110.081 52.6585 109.971 52.3809 109.971 52.1232V41.5756L107.48 45.7292C107.33 45.9473 107.164 46.1704 106.959 46.3538C106.848 46.4628 106.698 46.557 106.548 46.6115C106.397 46.666 106.232 46.6858 106.067 46.6858H100.844C100.679 46.6858 100.508 46.6858 100.363 46.6115C100.213 46.557 100.067 46.4628 99.952 46.3538C99.7465 46.1704 99.5811 45.9473 99.4307 45.7292L96.9398 41.5756V52.1232C96.9398 52.4008 96.8295 52.6585 96.6441 52.8419C96.4587 53.0253 96.198 53.1343 95.9374 53.1542H89.061C88.8004 53.1542 88.5397 53.0451 88.3543 52.8419C88.1689 52.6585 88.0586 52.3809 88.0586 52.1232V27.3007C88.0586 27.0231 88.1689 26.7704 88.3543 26.582C88.5397 26.3986 88.8004 26.2896 89.061 26.2697H95.0453C95.2508 26.2697 95.4713 26.2697 95.6567 26.3639C95.8622 26.4383 96.0276 26.5473 96.178 26.696C96.3634 26.8794 96.5288 27.0826 96.6792 27.3007L103.465 36.5249Z" fill="white"/>
<path d="M161.269 23.3157L165.895 15.6529L170.261 23.3157C170.371 23.4991 170.521 23.6627 170.672 23.8312C170.802 23.9601 170.952 24.0493 171.098 24.1088C171.263 24.1633 171.433 24.203 171.599 24.1831H176.581C176.806 24.1831 177.027 24.089 177.192 23.9254C177.358 23.7618 177.453 23.5388 177.453 23.3207V2.68153C177.453 2.44362 177.358 2.22057 177.192 2.07683C177.027 1.91327 176.821 1.81909 176.581 1.81909H170.877C170.652 1.81909 170.431 1.91327 170.266 2.07683C170.1 2.2404 170.025 2.46345 170.025 2.68153V11.4249L168.015 7.99002C167.905 7.80663 167.755 7.62323 167.589 7.45967C167.494 7.36549 167.369 7.2961 167.238 7.25645C167.108 7.2168 166.978 7.20193 166.847 7.20193H164.652C164.522 7.20193 164.392 7.20193 164.261 7.25645C164.131 7.29114 164.021 7.36549 163.91 7.45967C163.76 7.62323 163.615 7.79176 163.484 7.99002L161.475 11.4249V2.68153C161.475 2.44362 161.379 2.22057 161.234 2.07683C161.069 1.91327 160.863 1.81909 160.623 1.81909H154.919C154.693 1.81909 154.473 1.91327 154.308 2.07683C154.142 2.2404 154.047 2.46345 154.047 2.68153V23.3157C154.047 23.5536 154.142 23.7767 154.308 23.9204C154.473 24.084 154.678 24.1782 154.919 24.1782H159.901C160.066 24.1782 160.252 24.1782 160.402 24.1038C160.567 24.0493 160.718 23.9551 160.828 23.8263C160.978 23.6627 161.124 23.4942 161.254 23.3108H161.274L161.269 23.3157Z" fill="white"/>
<path fill-rule="evenodd" clip-rule="evenodd" d="M137.107 42.0962L134.952 34.9489L132.832 42.0962H137.107ZM139.097 26.2749C139.318 26.2749 139.523 26.2749 139.728 26.369C139.934 26.4434 140.119 26.5524 140.27 26.7011C140.51 26.939 140.696 27.2364 140.811 27.5487L149.286 52.0589V52.3167C149.286 52.5348 149.191 52.7578 149.046 52.9214C148.895 53.0849 148.675 53.1791 148.449 53.1791H141.443C141.257 53.1989 141.072 53.1791 140.886 53.1246C140.701 53.0701 140.535 52.9759 140.385 52.847C140.2 52.6636 140.069 52.4604 139.959 52.2225L139.047 49.6847H130.907L129.995 52.2225C129.9 52.4604 129.755 52.6636 129.569 52.847C129.419 52.9759 129.253 53.0651 129.068 53.1246C128.883 53.1791 128.697 53.1989 128.512 53.1791H121.505C121.279 53.1791 121.079 53.0849 120.909 52.9214C120.758 52.7578 120.668 52.5546 120.668 52.3167V52.0589L129.143 27.5487C129.253 27.2166 129.439 26.9242 129.685 26.7011C129.85 26.5524 130.035 26.4434 130.226 26.369C130.431 26.2947 130.637 26.26 130.857 26.2749H139.112H139.097Z" fill="white"/>
<path d="M177.349 26.5871C177.163 26.4037 176.903 26.2946 176.642 26.2748H169.766C169.505 26.2748 169.244 26.3838 169.059 26.5871C168.873 26.7704 168.763 27.048 168.763 27.3058V37.7988L159.656 27.162C159.526 26.9588 159.376 26.7754 159.19 26.6118C158.875 26.3541 158.484 26.2252 158.093 26.2649H152.088C151.828 26.2649 151.567 26.3739 151.382 26.5771C151.196 26.7605 151.086 27.0381 151.086 27.2958V51.9895C151.086 52.267 151.196 52.5198 151.382 52.7082C151.567 52.8916 151.828 53.0006 152.088 53.0204H158.965C159.225 53.0204 159.486 52.9114 159.671 52.7082C159.857 52.5248 159.967 52.2472 159.967 51.9895V42.344L169.074 52.153C169.204 52.3563 169.355 52.5396 169.54 52.7032C169.856 52.961 170.247 53.0898 170.638 53.0502H176.642C176.903 53.0502 177.163 52.9411 177.349 52.7379C177.534 52.5545 177.644 52.2769 177.644 52.0192V27.3058C177.644 27.0282 177.534 26.7754 177.349 26.5871Z" fill="white"/>
<path d="M103.708 71.9297C103.839 71.9297 103.949 71.9495 104.059 72.004C104.17 72.0586 104.285 72.1131 104.355 72.2072C104.43 72.3014 104.505 72.4105 104.561 72.5195C104.616 72.6286 104.636 72.7574 104.636 72.8863C104.636 73.2927 102.646 78.9482 102.646 78.9482C102.571 79.1861 102.44 79.424 102.275 79.6074C102.18 79.7016 102.09 79.771 101.979 79.8106C101.869 79.8652 101.739 79.885 101.629 79.885H88.8781C88.6375 79.885 88.3969 79.7908 88.2065 79.6074C88.0411 79.424 87.9258 79.1861 87.9258 78.9284V56.2174C87.9258 55.9596 88.021 55.7217 88.2065 55.5383C88.3719 55.3549 88.6174 55.2607 88.8781 55.2607H95.7896C96.0301 55.2607 96.2707 55.3549 96.4612 55.5383C96.6266 55.7217 96.7418 55.9596 96.7418 56.2174V71.9099H103.729L103.708 71.9297Z" fill="white"/>
<path fill-rule="evenodd" clip-rule="evenodd" d="M117.652 63.2953L119.642 69.8182H115.647L117.637 63.2953H117.657H117.652ZM122.017 55.3946C121.832 55.3202 121.627 55.3004 121.441 55.3202H113.823C113.617 55.3202 113.432 55.3202 113.247 55.3946C113.061 55.4689 112.896 55.5581 112.745 55.7068C112.52 55.91 112.354 56.1826 112.264 56.48L104.551 78.7301V78.968C104.551 79.1712 104.626 79.3744 104.776 79.5182C104.927 79.6669 105.112 79.7363 105.318 79.7363H111.768C111.933 79.7363 112.119 79.7363 112.269 79.6817C112.435 79.6272 112.585 79.5529 112.715 79.424C112.881 79.2604 113.011 79.0572 113.086 78.8342L113.923 76.5195H121.356L122.193 78.8342C122.288 79.0523 122.418 79.2555 122.564 79.424C122.694 79.533 122.844 79.6272 123.01 79.6817C123.175 79.7363 123.346 79.7561 123.511 79.7363H129.906C130.112 79.7363 130.297 79.6619 130.448 79.5182C130.598 79.3695 130.673 79.1861 130.673 78.968V78.7301L122.96 56.48C122.865 56.1876 122.699 55.9299 122.479 55.7068C122.328 55.5779 122.163 55.4689 121.977 55.3946H122.033H122.017Z" fill="white"/>
<path fill-rule="evenodd" clip-rule="evenodd" d="M140.394 73.7142H143.611C143.852 73.734 144.092 73.7142 144.298 73.6052C144.518 73.511 144.709 73.3474 144.839 73.1442C145.08 72.8121 145.19 72.4106 145.19 71.9844C145.19 71.5581 145.04 71.1566 144.779 70.8096C144.629 70.6263 144.463 70.4776 144.238 70.3883C144.032 70.2942 143.792 70.2595 143.571 70.2595H140.353V73.6944L140.388 73.7142H140.394ZM144.764 62.8544C144.764 62.4677 144.654 62.0811 144.448 61.7689C144.318 61.5855 144.168 61.4368 143.967 61.3476C143.782 61.2534 143.556 61.2187 143.356 61.2385H140.399V64.4355H143.3C143.506 64.4553 143.726 64.4355 143.912 64.3265C144.097 64.2323 144.263 64.1084 144.393 63.92C144.619 63.6078 144.744 63.241 144.764 62.8544ZM132.72 79.7216C132.59 79.7216 132.48 79.7017 132.369 79.6472C132.259 79.5927 132.144 79.5382 132.074 79.444C131.978 79.3498 131.923 79.2408 131.868 79.1317C131.813 79.0227 131.793 78.8938 131.793 78.7649V56.1283C131.793 55.9994 131.813 55.8706 131.868 55.7615C131.923 55.6525 131.978 55.5434 132.074 55.4492C132.169 55.3551 132.259 55.2857 132.369 55.246C132.48 55.1915 132.61 55.1717 132.72 55.1717H144.208C147.425 55.1172 149.951 55.816 151.495 56.9907C152.292 57.6698 152.908 58.5174 153.299 59.4888C153.71 60.4455 153.876 61.4913 153.78 62.5371C153.78 63.0724 153.685 63.6028 153.5 64.0985C153.334 64.5396 153.089 64.9609 152.793 65.3475C152.532 65.6945 152.237 66.0067 151.901 66.3041C151.62 66.542 151.325 66.7453 151.009 66.9088C151.475 67.112 151.881 67.3698 152.272 67.6969C152.683 68.029 153.034 68.4305 153.329 68.8716C153.625 69.3128 153.871 69.8084 154.056 70.3239C154.222 70.8543 154.317 71.4243 154.317 71.9794C154.392 73.0798 154.206 74.2049 153.775 75.2111C153.329 76.2222 152.663 77.1243 151.806 77.8034C149.651 79.2011 147.105 79.8603 144.558 79.6769H132.735L132.715 79.7116L132.72 79.7216Z" fill="white"/>
<path d="M150.145 96.2913H152.29C152.942 96.2913 153.428 96.1575 153.748 95.8948C154.069 95.6222 154.23 95.2157 154.23 94.6854C154.23 94.155 154.069 93.7635 153.748 93.4909C153.438 93.2182 152.952 93.0795 152.29 93.0795H150.145V96.2963V96.2913ZM149.173 101C149.077 101 149.002 100.975 148.952 100.921C148.902 100.861 148.872 100.787 148.872 100.703V92.3062C148.872 92.2121 148.897 92.1377 148.952 92.0881C149.002 92.0287 149.077 91.9989 149.173 91.9989H152.345C153.327 91.9989 154.099 92.2269 154.676 92.6829C155.247 93.1389 155.533 93.8081 155.533 94.7003C155.533 95.3595 155.362 95.8997 155.026 96.3211C154.696 96.7325 154.245 97.0199 153.673 97.1835L155.678 100.604C155.703 100.653 155.718 100.703 155.718 100.747C155.718 100.817 155.688 100.876 155.628 100.926C155.578 100.975 155.518 101.005 155.447 101.005H154.821C154.676 101.005 154.565 100.965 154.495 100.891C154.425 100.812 154.365 100.737 154.315 100.658L152.43 97.3917H150.155V100.708C150.155 100.792 150.125 100.866 150.065 100.926C150.015 100.975 149.939 101.005 149.844 101.005H149.183L149.173 101ZM134.778 101C134.683 101 134.608 100.975 134.558 100.921C134.507 100.861 134.477 100.787 134.477 100.703V92.3062C134.477 92.2121 134.502 92.1377 134.558 92.0881C134.608 92.0287 134.683 91.9989 134.778 91.9989H140.151C140.246 91.9989 140.321 92.0287 140.372 92.0881C140.422 92.1377 140.452 92.2121 140.452 92.3062V92.7969C140.452 92.8911 140.427 92.9655 140.372 93.015C140.321 93.0646 140.246 93.0943 140.151 93.0943H135.725V95.9097H139.86C139.955 95.9097 140.031 95.9394 140.081 95.9989C140.131 96.0484 140.161 96.1228 140.161 96.217V96.6928C140.161 96.7771 140.136 96.8514 140.081 96.9109C140.031 96.9605 139.955 96.9902 139.86 96.9902H135.725V99.9096H140.251C140.346 99.9096 140.422 99.9344 140.472 99.9889C140.522 100.038 140.552 100.113 140.552 100.207V100.708C140.552 100.792 140.527 100.866 140.472 100.926C140.422 100.975 140.346 101.005 140.251 101.005H134.773L134.778 101ZM120.94 101C120.845 101 120.77 100.975 120.72 100.921C120.669 100.861 120.639 100.787 120.639 100.703V92.2914C120.639 92.2071 120.664 92.1377 120.72 92.0832C120.77 92.0237 120.845 91.994 120.94 91.994H121.632C121.717 91.994 121.787 92.0237 121.842 92.0832C121.902 92.1328 121.932 92.2021 121.932 92.2914V99.8799H126.253C126.348 99.8799 126.423 99.9096 126.473 99.9691C126.533 100.019 126.564 100.093 126.564 100.187V100.703C126.564 100.787 126.533 100.861 126.473 100.921C126.423 100.97 126.348 101 126.253 101H120.945H120.94ZM106.721 95.8006H109.117C109.673 95.8006 110.094 95.6767 110.38 95.4289C110.666 95.1711 110.811 94.8242 110.811 94.388C110.811 93.9518 110.666 93.6148 110.38 93.3868C110.094 93.1538 109.673 93.0398 109.117 93.0398H106.721V95.8056V95.8006ZM106.721 99.9592H109.247C109.804 99.9592 110.23 99.8105 110.535 99.5081C110.841 99.2058 110.991 98.839 110.991 98.4028C110.991 97.9666 110.841 97.5751 110.535 97.2826C110.23 96.9803 109.804 96.8316 109.247 96.8316H106.721V99.9592ZM105.744 101C105.649 101 105.573 100.975 105.523 100.921C105.473 100.861 105.443 100.787 105.443 100.703V92.3062C105.443 92.2121 105.468 92.1377 105.523 92.0881C105.573 92.0287 105.649 91.9989 105.744 91.9989H109.307C109.959 91.9989 110.485 92.108 110.896 92.3211C111.312 92.5293 111.618 92.8118 111.808 93.1687C112.009 93.5305 112.109 93.932 112.109 94.3781C112.109 94.73 112.049 95.0323 111.929 95.2901C111.818 95.5379 111.673 95.7461 111.498 95.9097C111.322 96.0633 111.157 96.1823 110.991 96.2715C111.327 96.4351 111.628 96.6978 111.888 97.0695C112.159 97.4363 112.289 97.8824 112.289 98.4078C112.289 98.8786 112.179 99.3148 111.964 99.7064C111.748 100.103 111.422 100.42 110.986 100.658C110.56 100.891 110.039 101.005 109.413 101.005H105.744V101ZM91.6953 97.8477H95.2087L93.4545 93.2827L91.7003 97.8477H91.6953ZM89.6103 101C89.5401 101 89.48 100.975 89.4299 100.921C89.3798 100.871 89.3497 100.812 89.3497 100.742C89.3497 100.698 89.3497 100.653 89.3647 100.599L92.5924 92.2765C92.6275 92.1922 92.6726 92.1228 92.7378 92.0683C92.7979 92.0188 92.8881 91.989 93.0134 91.989H93.9006C94.0208 91.989 94.111 92.0138 94.1762 92.0683C94.2364 92.1179 94.2865 92.1873 94.3216 92.2765L97.5342 100.599C97.5493 100.648 97.5593 100.698 97.5593 100.742C97.5593 100.812 97.5342 100.871 97.4791 100.921C97.429 100.97 97.3688 101 97.2987 101H96.6371C96.5318 101 96.4566 100.975 96.4015 100.921C96.3564 100.871 96.3263 100.822 96.3113 100.777L95.5946 98.953H91.3294L90.6127 100.777C90.6027 100.822 90.5726 100.866 90.5225 100.921C90.4724 100.97 90.3922 101 90.2869 101H89.6253H89.6103ZM74.9704 101C74.8751 101 74.7999 100.975 74.7498 100.921C74.6997 100.861 74.6696 100.787 74.6696 100.703V92.3062C74.6696 92.2121 74.6947 92.1377 74.7498 92.0881C74.7999 92.0287 74.8751 91.9989 74.9704 91.9989H75.5668C75.672 91.9989 75.7472 92.0237 75.8023 92.0782C75.8525 92.1228 75.8825 92.1575 75.8926 92.1823L80.2129 98.7399V92.3112C80.2129 92.217 80.2379 92.1427 80.2931 92.0931C80.3432 92.0336 80.4184 92.0039 80.5136 92.0039H81.1401C81.2353 92.0039 81.3105 92.0336 81.3606 92.0931C81.4208 92.1427 81.4508 92.217 81.4508 92.3112V100.698C81.4508 100.782 81.4208 100.856 81.3606 100.916C81.3105 100.975 81.2403 101.005 81.1501 101.005H80.5236C80.4284 101.005 80.3532 100.98 80.3031 100.926C80.258 100.876 80.2279 100.841 80.2129 100.822L75.9076 94.3285V100.708C75.9076 100.792 75.8775 100.866 75.8174 100.926C75.7673 100.975 75.6921 101.005 75.5969 101.005H74.9704V101ZM60.576 101C60.4808 101 60.4056 100.975 60.3555 100.921C60.3053 100.861 60.2753 100.787 60.2753 100.703V92.3062C60.2753 92.2121 60.3003 92.1377 60.3555 92.0881C60.4056 92.0287 60.4808 91.9989 60.576 91.9989H65.9488C66.044 91.9989 66.1192 92.0287 66.1693 92.0881C66.2195 92.1377 66.2495 92.2121 66.2495 92.3062V92.7969C66.2495 92.8911 66.2245 92.9655 66.1693 93.015C66.1192 93.0646 66.044 93.0943 65.9488 93.0943H61.5233V95.9097H65.6581C65.7533 95.9097 65.8285 95.9394 65.8787 95.9989C65.9288 96.0484 65.9588 96.1228 65.9588 96.217V96.6928C65.9588 96.7771 65.9338 96.8514 65.8787 96.9109C65.8285 96.9605 65.7533 96.9902 65.6581 96.9902H61.5233V99.9096H66.0491C66.1443 99.9096 66.2195 99.9344 66.2696 99.9889C66.3197 100.038 66.3498 100.113 66.3498 100.207V100.708C66.3498 100.792 66.3247 100.866 66.2696 100.926C66.2195 100.975 66.1443 101.005 66.0491 101.005H60.571L60.576 101ZM40.8188 101C40.7236 101 40.6484 100.975 40.5983 100.921C40.5482 100.861 40.5181 100.787 40.5181 100.703V92.2914C40.5181 92.2071 40.5432 92.1377 40.5983 92.0832C40.6484 92.0237 40.7236 91.994 40.8188 91.994H41.5105C41.6057 91.994 41.6809 92.0237 41.731 92.0832C41.7811 92.1328 41.8112 92.2021 41.8112 92.2914V100.703C41.8112 100.787 41.7861 100.861 41.731 100.921C41.6809 100.97 41.6057 101 41.5105 101H40.8188ZM26.7703 97.8477H30.2837L28.5295 93.2827L26.7753 97.8477H26.7703ZM24.6903 101C24.6201 101 24.56 100.975 24.5099 100.921C24.4598 100.871 24.4297 100.812 24.4297 100.742C24.4297 100.698 24.4297 100.653 24.4447 100.599L27.6724 92.2765C27.7075 92.1922 27.7526 92.1228 27.8178 92.0683C27.8779 92.0188 27.9681 91.989 28.0934 91.989H28.9806C29.1008 91.989 29.1911 92.0138 29.2562 92.0683C29.3164 92.1179 29.3665 92.1873 29.4016 92.2765L32.6142 100.599C32.6293 100.648 32.6393 100.698 32.6393 100.742C32.6393 100.812 32.6142 100.871 32.5591 100.921C32.509 100.97 32.4488 101 32.3787 101H31.7171C31.6118 101 31.5367 100.975 31.4815 100.921C31.4364 100.871 31.4063 100.822 31.3913 100.777L30.6746 98.953H26.4094L25.6927 100.777C25.6827 100.822 25.6526 100.866 25.6025 100.921C25.5524 100.97 25.4722 101 25.3669 101H24.7053H24.6903Z" fill="white"/>
<path d="M41.479 40.1185C41.7346 40.1383 41.9902 40.1978 42.2258 40.2573C43.564 40.8075 44.7067 41.7294 45.5687 42.8843C46.4358 44.059 46.9671 45.4518 47.1024 46.904C47.2578 48.3563 47.0022 49.8235 46.3957 51.1568C45.7843 52.4901 44.842 53.6103 43.6391 54.4331C42.4413 55.2559 41.063 55.7267 39.6246 55.806C38.1861 55.8853 36.7727 55.5533 35.4947 54.8643C34.2367 54.1803 33.1742 53.1394 32.4274 51.8854C31.6806 50.6314 31.3047 49.1989 31.3047 47.7268C31.3047 46.1754 31.7357 44.6686 32.5426 43.375C33.3496 42.0813 34.3119 40.981 35.4145 40.4556C36.1011 40.0838 36.7326 39.8657 37.2238 39.8657C37.715 39.8657 38.1861 40.0442 38.562 40.3564C38.9379 40.6885 39.1935 41.1197 39.2487 41.6303C39.3088 42.1408 39.2286 42.6315 38.953 43.0627C38.7525 43.4444 38.5821 43.6625 38.3966 43.9053C38.1761 44.1879 37.9355 44.5051 37.5947 45.1395C37.4594 45.4319 37.3992 45.7492 37.3992 46.0614C37.3992 46.3142 37.4393 46.572 37.5346 46.8247C37.6348 47.0577 37.7701 47.2758 37.9455 47.4741C38.121 47.6525 38.3415 47.8061 38.5771 47.9053C38.8126 48.0044 39.0682 48.0441 39.3238 48.0441C39.6396 48.0242 39.9553 47.9053 40.231 47.7516C40.5067 47.5732 40.7422 47.3402 40.8976 47.0676C41.053 46.795 41.1733 46.4778 41.1933 46.1457C41.2133 45.8136 41.1732 45.4964 41.0379 45.1841C40.8575 44.8322 40.652 44.5645 40.4415 44.287C40.1909 43.9598 39.9253 43.6129 39.6847 43.1073C39.5494 42.7951 39.4892 42.458 39.5093 42.1061C39.5093 41.774 39.6296 41.437 39.805 41.1445C39.9804 40.8521 40.216 40.6142 40.5117 40.4407C40.8074 40.2622 41.1231 40.1681 41.4539 40.1681L41.474 40.1284L41.479 40.1185Z" fill="white"/>
<path d="M61.4726 38.587C62.3597 38.6663 63.2017 37.9029 64.0087 36.1533H64.0287C62.455 35.8014 60.5254 35.4494 58.4805 35.1719C58.6358 35.7617 59.4227 37.2883 59.8788 37.7196C60.3098 38.1508 60.6857 38.463 61.4726 38.582V38.587Z" fill="white"/>
<path d="M17.1967 38.587C16.3096 38.6663 15.4676 37.903 14.6607 36.1533V36.1335H14.6406C15.1168 35.9997 15.638 35.8956 16.1893 35.7865C16.5301 35.7171 16.886 35.6478 17.2569 35.5635L20.1889 35.1521L19.7177 36.1335C19.422 36.7828 19.1464 37.3082 18.7905 37.7196C18.3595 38.1508 17.8834 38.5027 17.1967 38.582V38.587Z" fill="white"/>
<path d="M21.7205 35.6229C21.6352 35.4147 21.55 35.2115 21.4648 35.0231C21.7455 34.9934 22.0362 34.9636 22.3319 34.9339C24.041 34.7555 25.9405 34.5522 27.9203 34.5522C27.5093 35.727 26.9379 37.318 26.2463 37.9624C25.7551 38.4531 25.2439 38.8248 24.5723 38.8248C23.9007 38.8248 23.2942 38.4927 22.8782 37.9624C22.4823 37.4419 22.0813 36.4952 21.7154 35.6229H21.7205Z" fill="white"/>
<path d="M29.3387 36.1979L28.5318 34.4532H28.5117C30.717 34.2351 33.0375 34.2351 35.3581 34.2351L34.3958 36.1979C34.0199 36.9612 33.7091 37.5114 33.2731 38.0418C32.8421 38.5721 32.386 38.7852 31.8547 38.7852C31.1881 38.7852 30.5766 38.3342 30.2208 37.8038C29.8649 37.2735 29.6093 36.8621 29.3337 36.1979H29.3387Z" fill="white"/>
<path d="M36.7982 36.1383L35.8359 34.1755H42.8026L41.8403 36.1383L41.745 36.3416C41.4092 37.0603 41.2088 37.4964 40.7577 38.002C40.2866 38.4927 39.9909 38.7257 39.3193 38.7257C38.6476 38.7257 38.1565 38.3143 37.7655 37.7641C37.2944 37.1148 37.099 36.7827 36.8032 36.1383H36.7982Z" fill="white"/>
<path d="M48.3442 37.6898C48.7552 37.0058 49.6624 35.2958 49.9982 34.4532C47.8731 34.2351 45.5526 34.2351 43.1719 34.2351C43.217 34.3194 43.2721 34.4334 43.3373 34.5672C43.8034 35.504 44.7456 37.4073 45.1616 37.903C45.5927 38.4333 45.9886 38.7852 46.6552 38.7852C47.3218 38.7852 48.1287 38.0418 48.3492 37.6849L48.3442 37.6898Z" fill="white"/>
<path d="M56.8612 35.7368C56.9514 35.5088 57.0517 35.2659 57.1619 34.9983L57.182 34.9784C56.8161 34.9437 56.4402 34.9041 56.0643 34.8644C54.3853 34.691 52.6211 34.5076 50.7266 34.5076L51.5335 36.1928C51.6688 36.4406 51.7741 36.6438 51.8643 36.8173C52.1149 37.2981 52.2452 37.5509 52.576 37.9375C53.0271 38.4679 53.403 38.7801 54.0695 38.7801C54.7361 38.7801 55.4077 38.3291 55.8187 37.7987C56.2548 37.2238 56.5054 36.5992 56.8562 35.7318L56.8612 35.7368Z" fill="white"/>
<path fill-rule="evenodd" clip-rule="evenodd" d="M9.75783 34.5126C10.1688 50.3736 23.6109 58.6313 39.4086 58.4132L39.3886 58.3735C55.1663 58.6313 68.5282 50.3786 69.0995 34.4283C69.0995 33.095 68.0771 32.7431 66.1675 32.7431H60.3637C56.8603 32.7431 53.3419 32.7976 49.8285 32.8521C46.3352 32.9067 42.8519 32.9612 39.4086 32.9612C35.9654 32.9612 32.2566 32.9166 28.673 32.872C23.3002 32.8075 17.9273 32.7381 12.6297 32.8224C10.7201 32.8224 9.75783 33.1148 9.75783 34.5076V34.5126ZM19.8118 22.9836C19.2605 22.6119 18.629 22.4136 17.9624 22.4136V22.374H17.8622C16.9951 22.4136 16.1681 22.7854 15.5617 23.4347C14.9502 24.084 14.6194 24.9464 14.6194 25.8287C14.6194 26.5127 14.8149 27.162 15.1908 27.732C15.5467 28.302 16.0779 28.7332 16.6844 28.986C17.2908 29.2388 17.9624 29.3181 18.614 29.1843C19.2655 29.0455 19.8519 28.7134 20.3281 28.2425C20.7992 27.7717 21.115 27.162 21.2553 26.4978C21.3756 25.8287 21.3154 25.1447 21.0598 24.5152C20.8042 23.8857 20.3732 23.3603 19.8219 22.9836H19.8118ZM62.6491 22.9638C62.0978 22.592 61.4663 22.3938 60.7997 22.3938V22.374C59.9126 22.3938 59.0706 22.7655 58.4391 23.395C57.8076 24.0245 57.4567 24.9068 57.4567 25.8089C57.4567 26.4929 57.6522 27.1422 58.0281 27.7122C58.3839 28.2822 58.9152 28.7134 59.5217 28.9662C60.1331 29.219 60.7997 29.2983 61.4513 29.1645C62.1028 29.0306 62.6892 28.6936 63.1654 28.2227C63.6365 27.7518 63.9522 27.1422 64.0926 26.478C64.2129 25.8089 64.1527 25.1249 63.8971 24.4954C63.6415 23.8659 63.2105 23.3405 62.6591 22.9638H62.6491ZM64.5587 11.98C65.2453 11.9602 65.937 12.0593 66.6036 12.2526V12.213C68.3728 12.664 71.385 14.9391 71.2296 22.3293V56.3909C71.2296 60.8022 69.5155 65.0401 66.4482 68.1578C63.3959 71.2953 59.246 73.04 54.9157 73.04H23.4706C19.1402 73.04 15.0104 71.2755 11.938 68.1578C8.87071 65.0401 7.15662 60.8022 7.15662 56.3909V22.4533C7.15662 22.4533 7.03633 16.3567 11.1311 14.9044C15.2259 13.4521 20.298 16.8077 26.1269 21.338C26.6732 21.7643 27.2195 22.2104 27.7708 22.6614C33.1336 27.048 39.0778 31.9104 49.0667 21.908C57.4317 13.5364 61.9374 11.985 64.5537 11.985L64.5587 11.98Z" fill="white"/>
<path fill-rule="evenodd" clip-rule="evenodd" d="M7.24229 7.41007C10.034 4.565 13.833 2.93924 17.7875 2.93924H60.8603C64.8148 2.93924 68.6138 4.54517 71.4055 7.41007C74.1972 10.275 75.791 14.1361 75.791 18.1757V62.1355C75.7709 66.1751 74.1972 70.0363 71.4055 72.9012C68.6088 75.7463 64.8148 77.372 60.8603 77.372H17.7875C13.833 77.372 10.034 75.7661 7.24229 72.9012C4.44561 70.0363 2.85682 66.1751 2.85682 62.1355V18.1757C2.87687 14.1361 4.45063 10.275 7.24229 7.41007ZM5.23249 74.9631C8.55543 78.3733 13.0812 80.2964 17.8075 80.2964H60.8603V80.2766C63.1809 80.2766 65.5064 79.8057 67.6666 78.9036C69.8317 77.9817 71.7964 76.6484 73.4504 74.9631C75.1244 73.2779 76.4225 71.2755 77.3246 69.0797C78.2118 66.8641 78.6829 64.5097 78.6829 62.1207V18.1559C78.6829 13.353 76.8134 8.72356 73.4704 5.31344C70.1274 1.92315 65.6016 0 60.8754 0H17.8075C13.0862 0.0198263 8.58049 1.92315 5.23249 5.33327C1.88951 8.74339 0 13.353 0 18.1757V62.1157C0.0200479 66.9385 1.88951 71.5481 5.23249 74.9582V74.9631Z" fill="white"/>
</g>
<defs>
<clipPath id="clip0_176_3148">
<rect width="178" height="101" fill="white"/>
</clipPath>
</defs>
</svg>
